Coordinates
version=1
nRows=29
nColumns=24
inDegrees=yes

Units are S.I. units (second, meters, Newtons, ...)
Angles are in degrees.

endheader
time	pelvis_tilt	pelvis_list	pelvis_rotation	pelvis_tx	pelvis_ty	pelvis_tz	hip_flexion_r	hip_adduction_r	hip_rotation_r	knee_angle_r	ankle_angle_r	subtalar_angle_r	mtp_angle_r	hip_flexion_l	hip_adduction_l	hip_rotation_l	knee_angle_l	ankle_angle_l	subtalar_angle_l	mtp_angle_l	lumbar_extension	lumbar_bending	lumbar_rotation
      3.31500000	     -8.84415471	      2.05050911	      6.54560740	     -1.20022395	     -0.03217364	      0.65057525	     36.36148294	     -5.23052998	      3.41980643	    -20.80632728	     -7.19414564	     -5.42491530	     18.82401242	     -7.57425439	      3.34487822	      9.00132202	    -17.72918900	      6.82780946	      4.37803011	      3.75153300	      7.07426881	      0.21896888	    -14.57076161
      3.32000000	     -8.84929487	      1.76446259	      6.75249377	     -1.19192588	     -0.03280930	      0.65031819	     36.20281602	     -4.98313233	      3.33478618	    -21.20356950	     -7.88384773	     -5.71167834	     19.65501282	     -7.61331764	      2.93332167	      8.87207579	    -18.33710932	      5.80605012	      4.76415044	      5.66278471	      7.25611302	      0.64283147	    -14.61406190
      3.32500000	     -8.94065563	      1.53874760	      7.08302031	     -1.18368173	     -0.03349365	      0.64984618	     36.17122005	     -4.88110937	      3.22225725	    -21.78783912	     -8.32374074	     -5.73288450	     19.81127184	     -7.49340688	      2.63357017	      9.05827295	    -19.11927163	      5.02690064	      4.98427451	      6.20716610	      7.52372694	      0.97645490	    -14.79945745
      3.33000000	     -8.98635895	      1.27469363	      7.18568777	     -1.17528590	     -0.03414612	      0.64967745	     36.14459072	     -4.60622546	      3.24324746	    -22.40482019	     -9.00786041	     -5.88822525	     20.81077570	     -7.42055152	      2.27950287	      8.88117783	    -19.82471481	      3.72102335	      5.18619830	      8.21682352	      7.75854722	      1.39656620	    -14.66809330
      3.33500000	     -9.04074975	      0.97282904	      7.41132405	     -1.16692446	     -0.03474102	      0.64927990	     36.15129838	     -4.38238887	      3.20090511	    -23.16273978	     -9.28224925	     -5.67967337	     20.98348442	     -7.23746093	      1.91178184	      8.94824241	    -20.76409130	      2.87817576	      5.48072319	      8.55411312	      8.01391281	      1.84122036	    -14.70684736
      3.34000000	     -9.10653812	      0.73500653	      7.52932042	     -1.15863322	     -0.03532215	      0.64921008	     36.21854791	     -4.12026305	      3.41231307	    -23.95477166	     -9.63817327	     -5.78286716	     21.86323939	     -6.99554195	      1.57903721	      8.69585669	    -21.62515782	      1.07140832	      5.59387603	     11.41901484	      8.25409684	      2.20934499	    -14.65211655
      3.34500000	     -9.16029879	      0.45145493	      7.67138044	     -1.15039407	     -0.03585695	      0.64907960	     36.33243814	     -3.83996101	      3.49336613	    -24.90082133	     -9.52353339	     -5.58872457	     21.75400456	     -6.65423864	      1.20525894	      8.45347557	    -22.70402929	     -0.37450155	      5.88628252	     13.02815519	      8.47917441	      2.62702018	    -14.57932281
      3.35000000	     -9.16550781	      0.17877952	      7.76457256	     -1.14215052	     -0.03625526	      0.64898775	     36.40979982	     -3.52868385	      3.67388149	    -25.88067228	     -9.17929735	     -5.31808207	     21.51393184	     -6.32219100	      0.84377114	      8.18900163	    -23.80522767	     -2.07674175	      6.08208883	     14.81656893	      8.65010110	      3.04955845	    -14.47502545
      3.35500000	     -9.15488265	     -0.09583802	      7.84063694	     -1.13394394	     -0.03656783	      0.64895641	     36.48822136	     -3.19434266	      3.82860448	    -26.90698360	     -8.63697722	     -5.06746922	     20.76661547	     -5.92724917	      0.47460219	      7.88259332	    -25.00128862	     -3.84638932	      6.31050590	     16.38360112	      8.79743216	      3.47112137	    -14.34517130
      3.36000000	     -9.13449705	     -0.36531616	      7.90432163	     -1.12575146	     -0.03682359	      0.64892548	     36.55209587	     -2.85344312	      3.95644902	    -27.94474463	     -7.92677988	     -4.84171690	     19.63132707	     -5.47764433	      0.11752229	      7.58606538	    -26.25547153	     -5.78705178	      6.43743520	     17.95272930	      8.93377144	      3.89161984	    -14.21670788
      3.36500000	     -9.08776176	     -0.62336480	      7.97246095	     -1.11766220	     -0.03695853	      0.64890948	     36.55996835	     -2.50907823	      4.07744236	    -28.93932304	     -7.22503216	     -4.79086974	     18.16250334	     -4.98446362	     -0.21728606	      7.34047433	    -27.56073636	     -7.92280630	      6.39901543	     19.47518628	      9.02389948	      4.29700217	    -14.12114082
      3.37000000	     -8.96896559	     -0.85247134	      8.01551831	     -1.10965526	     -0.03697185	      0.64888150	     36.46924607	     -2.20571978	      4.00386167	    -29.88503295	     -6.46288489	     -4.66198463	     16.64307301	     -4.51254774	     -0.52595235	      7.08231761	    -28.88958963	    -10.23783264	      6.33507767	     21.06795003	      9.01361883	      4.69027234	    -13.93308935
      3.37500000	     -8.89706800	     -1.05077240	      8.06492253	     -1.10178004	     -0.03697443	      0.64885140	     36.38131385	     -1.94222752	      3.92436793	    -30.73458941	     -5.78029309	     -4.64571651	     15.34387913	     -3.91447462	     -0.77150571	      6.89957672	    -30.28641976	    -12.65694420	      6.15625054	     22.42238311	      9.03445683	      5.03640534	    -13.78861348
      3.38000000	     -8.78193806	     -1.25261046	      8.09893955	     -1.09390022	     -0.03687904	      0.64879875	     36.17605436	     -1.68176640	      3.77082747	    -31.45424929	     -5.05381030	     -4.57054133	     14.35630567	     -3.32541421	     -1.00873682	      6.75676502	    -31.67583987	    -15.23293406	      5.89306598	     23.75553311	      9.01176174	      5.39464299	    -13.63430248
      3.38500000	     -8.68268640	     -1.37858888	      8.16816622	     -1.08630775	     -0.03674147	      0.64869618	     35.94294545	     -1.52976655	      3.56261456	    -32.06363155	     -4.46732915	     -4.61221335	     13.95694050	     -2.63615356	     -1.11364800	      6.76319240	    -33.15800827	    -17.81684966	      5.50438167	     24.50091232	      8.95641455	      5.65847154	    -13.52033350
      3.39000000	     -8.59657636	     -1.56385522	      8.20084212	     -1.07873649	     -0.03660743	      0.64858058	     35.66994927	     -1.32925729	      3.29565969	    -32.55856860	     -3.81915283	     -4.44502980	     13.79455312	     -1.88298830	     -1.26365308	      6.75624150	    -34.64257601	    -20.57009667	      5.06832108	     25.50999125	      8.92142128	      5.99430777	    -13.35580486
      3.39500000	     -8.51587498	     -1.82444792	      8.17284102	     -1.07130710	     -0.03652190	      0.64857337	     35.37317847	     -1.03437362	      3.01995578	    -32.95311297	     -3.20766630	     -4.16359372	     13.89545103	     -1.05907729	     -1.49399470	      6.70947623	    -36.15561127	    -23.42427455	      4.73426209	     26.96527648	      8.87356871	      6.41336634	    -13.11397491
      3.40000000	     -8.42385063	     -2.03099629	      8.20195813	     -1.06414100	     -0.03639260	      0.64844695	     35.03119656	     -0.83943235	      2.65384458	    -33.27411406	     -2.66655480	     -3.98460025	     14.17564855	     -0.16144102	     -1.61798121	      6.75562591	    -37.78454211	    -26.13366933	      4.27728801	     27.44422066	      8.77449426	      6.76608014	    -12.94419243
      3.40500000	     -8.39012074	     -2.32126667	      8.18754497	     -1.05693031	     -0.03633331	      0.64838605	     34.70138250	     -0.54397945	      2.33254680	    -33.48743295	     -2.12083892	     -3.76576471	     14.54513493	      0.83415143	     -1.81404262	      6.80398250	    -39.41438038	    -28.89916444	      3.88131603	     28.11807651	      8.75946230	      7.19728929	    -12.73668259
      3.41000000	     -8.28457304	     -2.73203349	      8.14165087	     -1.04979839	     -0.03622500	      0.64835139	     34.26579614	     -0.09713640	      1.98409578	    -33.60732150	     -1.65993126	     -3.68984958	     14.69080524	      1.84158106	     -2.14765119	      6.77073484	    -41.19063554	    -31.17019518	      3.65862183	     27.70422192	      8.67042040	      7.77158650	    -12.47792150
      3.41500000	     -8.22281933	     -3.10180012	      8.11858776	     -1.04284186	     -0.03616252	      0.64830399	     33.86997057	      0.28433003	      1.61783076	    -33.70950216	     -1.18997448	     -3.57825033	     14.84497089	      2.94129298	     -2.41369846	      6.78012254	    -42.98295618	    -33.42404136	      3.40488393	     27.31033289	      8.60097009	      8.28077895	    -12.24590616
      3.42000000	     -8.20756068	     -3.45303061	      8.08881011	     -1.03604059	     -0.03616168	      0.64833101	     33.52774627	      0.64862965	      1.25610225	    -33.80446587	     -0.73652522	     -3.48138137	     14.98258272	      4.13559768	     -2.65523154	      6.77169667	    -44.80441254	    -35.48583000	      3.23402829	     26.86336102	      8.55577454	      8.74564059	    -12.04751399
      3.42500000	     -8.17309492	     -3.86392431	      8.02274449	     -1.02915381	     -0.03611118	      0.64835877	     33.12186778	      1.10778383	      0.97382306	    -33.81932938	     -0.25609476	     -3.35833349	     15.10879656	      5.30915482	     -2.95683916	      6.77440891	    -46.62051877	    -37.09947229	      3.29405228	     26.32386962	      8.51142925	      9.28655074	    -11.71476413
      3.43000000	     -8.30413868	     -4.25202343	      8.02542279	     -1.02241631	     -0.03620391	      0.64834249	     32.90591079	      1.49300385	      0.64184557	    -33.85440541	      0.14116392	     -3.41634915	     15.17490295	      6.74166921	     -3.19454609	      6.82415826	    -48.54994328	    -38.09118963	      3.53122991	     25.13326868	      8.64595544	      9.75304397	    -11.53891367
      3.43500000	     -8.27127190	     -4.62298038	      7.90272189	     -1.01568206	     -0.03609116	      0.64840326	     32.49569446	      1.95160490	      0.43789451	    -33.84849416	      0.59340225	     -3.25524013	     15.32785269	      7.95753245	     -3.45913937	      6.74208427	    -50.46125543	    -38.25574262	      4.14309168	     23.74671378	      8.56704749	     10.25613269	    -11.13430269
      3.44000000	     -8.22226923	     -4.96284402	      7.79227843	     -1.00887247	     -0.03579965	      0.64853289	     32.01723930	      2.41533361	      0.35724624	    -33.77513890	      1.02337255	     -3.19935827	     15.43614605	      9.10723459	     -3.70615997	      6.69945318	    -52.21202558	    -38.30922802	      4.90595694	     23.60077347	      8.48554397	     10.70651042	    -10.82029735
      3.44500000	     -8.18658295	     -5.22448226	      7.67920734	     -1.00210447	     -0.03542523	      0.64861360	     31.53993701	      2.79691121	      0.28313659	    -33.69468519	      1.44427677	     -3.16880103	     15.52018488	     10.24437215	     -3.85646921	      6.66129771	    -53.90994531	    -37.80686227	      5.87622048	     23.86048382	      8.40133808	     11.07605925	    -10.42828919
      3.45000000	     -8.15357583	     -5.42298722	      7.56527436	     -0.99536843	     -0.03491904	      0.64868386	     31.04208663	      3.12534533	      0.27026200	    -33.58785292	      1.82845395	     -3.17872019	     15.53523760	     11.35398368	     -3.94021549	      6.62283169	    -55.51784371	    -36.88709127	      7.09393365	     24.75782261	      8.30987159	     11.37395733	    -10.05079701
      3.45500000	     -8.14626052	     -5.64502834	      7.48980163	     -0.98857729	     -0.03429487	      0.64872862	     30.53276168	      3.46614999	      0.25086336	    -33.41773480	      2.18422882	     -3.26322376	     15.30319305	     12.45694853	     -4.04944615	      6.64270105	    -56.94903377	    -35.99944156	      8.41364547	     27.27335271	      8.27453059	     11.68313985	     -9.70113967
